<?xml version="1.0" encoding="UTF-8" standalone="no"?>
<!-- Created with Inkscape (http://www.inkscape.org/) -->

<svg
   xmlns:dc="http://purl.org/dc/elements/1.1/"
   xmlns:cc="http://creativecommons.org/ns#"
   xmlns:rdf="http://www.w3.org/1999/02/22-rdf-syntax-ns#"
   xmlns:svg="http://www.w3.org/2000/svg"
   xmlns="http://www.w3.org/2000/svg"
   xmlns:sodipodi="http://sodipodi.sourceforge.net/DTD/sodipodi-0.dtd"
   xmlns:inkscape="http://www.inkscape.org/namespaces/inkscape"
   width="800"
   height="300"
   id="svg2"
   version="1.1"
   inkscape:version="0.48.5 r10040"
   sodipodi:docname="Novo documento 1">
  <defs
     id="defs4" />
  <sodipodi:namedview
     id="base"
     pagecolor="#ffffff"
     bordercolor="#666666"
     borderopacity="1.0"
     inkscape:pageopacity="0.0"
     inkscape:pageshadow="2"
     inkscape:zoom="1.4142136"
     inkscape:cx="409.94699"
     inkscape:cy="146.93798"
     inkscape:document-units="px"
     inkscape:current-layer="layer1"
     showgrid="false"
     showguides="false"
     inkscape:guide-bbox="true"
     inkscape:snap-global="false"
     inkscape:window-width="1366"
     inkscape:window-height="715"
     inkscape:window-x="0"
     inkscape:window-y="27"
     inkscape:window-maximized="1">
    <sodipodi:guide
       orientation="0,1"
       position="374.05949,150.61374"
       id="guide3032" />
    <sodipodi:guide
       orientation="1,0"
       position="400.22244,91.923881"
       id="guide3034" />
    <sodipodi:guide
       orientation="0,1"
       position="622.25396,106.77312"
       id="guide3040" />
  </sodipodi:namedview>
  <metadata
     id="metadata7">
    <rdf:RDF>
      <cc:Work
         rdf:about="">
        <dc:format>image/svg+xml</dc:format>
        <dc:type
           rdf:resource="http://purl.org/dc/dcmitype/StillImage" />
        <dc:title></dc:title>
      </cc:Work>
    </rdf:RDF>
  </metadata>
  <g
     inkscape:label="Camada 1"
     inkscape:groupmode="layer"
     id="layer1"
     transform="translate(0,-752.36218)">
    <rect
       style="fill:#ececec;stroke:none"
       id="rect2985"
       width="800"
       height="300"
       x="0"
       y="752.36218"
       sodipodi:insensitive="true" />
    <g
       id="g3042"
       transform="translate(0,10)">
      <g
         transform="matrix(1.5861067,0,0,1.5861067,-125.02703,-426.72671)"
         id="g3022">
        <g
           id="g3016">
          <path
             sodipodi:nodetypes="cccscccsccsccccccccccccccccccccccccccccccccccccccccscccccsccc"
             d="m 285.39053,834.53795 c -15.36117,15.29333 -15.3844,20.81934 -29.19756,27.07154 -2.57415,0.96141 -5.42738,1.72124 -8.55969,2.27948 -3.10137,0.55824 -6.54385,0.83736 -10.32745,0.83737 -4.18683,-1e-5 -7.97046,-0.85288 -11.35089,-2.55861 -3.34947,-1.67472 -6.2182,-3.9387 -8.60621,-6.79193 -2.38804,-2.88424 -4.23334,-6.21817 -5.53589,-10.00181 -1.27155,-3.81463 -1.90733,-7.81535 -1.90732,-12.00217 -1e-5,-2.85321 0.31012,-5.90802 0.9304,-9.16446 0.62026,-3.28738 1.50414,-6.62131 2.65164,-10.00181 1.1785,-3.41142 2.60511,-6.80738 4.27985,-10.18789 1.6747,-3.3804 3.56652,-6.6213 5.67544,-9.72269 2.13991,-3.10128 4.48141,-5.97001 7.02453,-8.60621 2.54307,-2.66708 5.25674,-4.97757 8.14101,-6.93149 2.88421,-1.98478 5.92352,-3.53545 9.11793,-4.65201 3.19434,-1.1164 6.51276,-1.67464 9.9553,-1.67472 2.2329,8e-5 4.49688,0.40326 6.79192,1.20952 2.29493,0.77542 4.35732,1.98494 6.18717,3.62857 1.82972,1.64378 3.31836,3.72168 4.46593,6.23368 1.17843,2.51216 1.76769,5.47393 1.76776,8.88533 -7e-5,2.29506 -0.37223,4.62106 -1.11648,6.97801 -0.71338,2.32606 -1.70581,4.57453 -2.97729,6.74541 -1.27161,2.13997 -2.77576,4.15584 -4.51244,6.04761 -1.7058,1.89186 -3.55109,3.53556 -5.53589,4.93113 -1.98491,1.36462 -4.0473,2.45009 -6.18717,3.2564 -2.13997,0.80638 -4.27989,1.20956 -6.41976,1.20952 -2.82226,4e-5 -4.93117,-0.37212 -6.32673,-1.11648 -1.39564,-0.7753 -2.09344,-1.87627 -2.0934,-3.30292 -4e-5,-0.24807 -0.0156,-0.5427 -0.0465,-0.88389 -4e-5,-0.3411 -4e-5,-0.69776 0,-1.06996 -4e-5,-0.5582 0.031,-1.13194 0.093,-1.72124 0.062,-0.62022 0.18604,-1.17846 0.37216,-1.67472 0.18604,-0.49617 0.44965,-0.89934 0.79084,-1.20952 0.37212,-0.31009 0.86833,-0.46516 1.48864,-0.4652 0.37212,4e-5 0.69776,0.0621 0.97692,0.18608 0.27908,0.0931 0.58921,0.20163 0.9304,0.32564 0.34111,0.1241 0.74428,0.24815 1.20952,0.37216 0.49617,0.0931 1.11644,0.1396 1.86081,0.13956 1.98481,4e-5 3.98517,-0.43414 6.00108,-1.30256 2.04683,-0.86833 3.87662,-2.09336 5.48937,-3.67509 1.64365,-1.58163 2.97722,-3.45794 4.00072,-5.62893 1.0544,-2.20189 1.58163,-4.62093 1.58169,-7.25712 -6e-5,-1.39554 -0.18614,-2.71361 -0.55824,-3.95421 -0.37222,-1.27148 -0.97698,-2.37245 -1.81429,-3.30292 -0.83742,-0.96135 -1.92288,-1.72117 -3.2564,-2.27949 -1.30262,-0.58918 -2.8998,-0.8838 -4.79157,-0.88388 -2.23301,8e-5 -4.41945,0.49629 -6.55932,1.48864 -2.10896,0.96149 -4.14033,2.27956 -6.09413,3.95421 -1.95388,1.67479 -3.81468,3.65964 -5.58241,5.95457 -1.73678,2.29505 -3.34947,4.76061 -4.83809,7.39669 -1.48866,2.60517 -2.83774,5.33435 -4.04724,8.18753 -1.17853,2.82226 -2.18646,5.64447 -3.0238,8.46665 -0.83738,2.82225 -1.48866,5.56693 -1.95385,8.23405 -0.4342,2.63616 -0.6513,5.07071 -0.65128,7.30365 -2e-5,3.19439 0.38765,5.98559 1.163,8.37361 0.80633,2.35702 1.93832,4.32637 3.39597,5.90804 1.4576,1.58169 3.24087,2.7602 5.34981,3.53553 2.10887,0.77534 4.4814,1.163 7.11756,1.163 3.28738,0 6.3422,-0.40317 9.16446,-1.20952 2.85318,-0.83736 5.56685,-1.92282 8.14101,-3.25641 6.9378,-4.43005 13.26311,-18.91203 23.61469,-27.2769"
             style="font-size:95.27307892px;font-style:normal;font-variant:normal;font-weight:normal;font-stretch:normal;line-height:125%;letter-spacing:0px;word-spacing:0px;fill:#ff2a2a;fill-opacity:1;stroke:none;font-family:Pacifico;-inkscape-font-specification:Pacifico"
             id="path2996"
             inkscape:connector-curvature="0" />
          <path
             d="m 308.44325,850.37851 c -0.8795,1.2331 -2.01587,2.60005 -3.40913,4.1008 -1.36942,1.464 -2.89144,2.88115 -4.56606,4.25144 -1.68112,1.33998 -3.43993,2.53792 -5.27646,3.59386 -1.80622,1.0495 -3.58908,1.76112 -5.34858,2.13488 -1.57752,0.33511 -2.95743,0.4063 -4.13974,0.21357 -1.15846,-0.22946 -2.15515,-0.66774 -2.9901,-1.31472 -0.83495,-0.64697 -1.52332,-1.49945 -2.06512,-2.55747 -0.5179,-1.09478 -0.92185,-2.32475 -1.21184,-3.68989 -0.40598,-1.91119 -0.66728,-4.18603 -0.78387,-6.82453 -0.19454,-5.09492 -0.23491,-7.97154 -0.1211,-8.62984 0.1412,-1.425 0.36229,-4.56324 0.66335,-9.41473 0.21947,-4.04146 0.32811,-6.66438 0.32593,-7.86876 -0.009,-0.79059 0.27029,-1.56338 0.83915,-2.31836 0.52106,-0.68135 1.14053,-1.27266 1.8584,-1.77395 0.74175,-0.53799 1.52123,-0.97307 2.33843,-1.30523 0.84108,-0.36886 1.61049,-0.62741 2.30825,-0.77567 1.27412,-0.27061 2.19026,-0.21158 2.74842,0.17709 0.5517,0.35844 0.91134,0.932 1.07889,1.72071 0.14176,0.66745 0.19629,1.67042 0.16359,3.00895 -0.0392,1.30828 -0.11549,2.81465 -0.22899,4.51911 -0.12,1.67419 -0.29036,3.70783 -0.51122,6.10091 -0.22735,2.36281 -0.37196,4.51779 -0.4339,6.46495 -0.0684,1.91688 -0.0674,3.78729 0.003,5.61121 0.0639,1.79364 0.24412,3.3882 0.54057,4.78365 0.88029,4.28255 4.60539,1.86078 6.66675,0.0556 1.17369,-1.04194 2.33033,-2.23879 3.46995,-3.59057 1.13313,-1.38209 2.22949,-2.78807 3.2891,-4.21799 1.05958,-1.42987 2.00292,-2.66067 2.83006,-3.69244 l 1.96226,11.23746"
             style="font-size:95.27307892px;font-style:normal;font-variant:normal;font-weight:normal;font-stretch:normal;line-height:125%;letter-spacing:0px;word-spacing:0px;fill:#ff2a2a;fill-opacity:1;stroke:none;font-family:Pacifico;-inkscape-font-specification:Pacifico"
             id="path2998"
             inkscape:connector-curvature="0"
             sodipodi:nodetypes="ccccscscsccccccccccccccccccscc" />
        </g>
        <path
           inkscape:connector-curvature="0"
           id="path3000"
           style="font-size:95.27307892px;font-style:normal;font-variant:normal;font-weight:normal;font-stretch:normal;line-height:125%;letter-spacing:0px;word-spacing:0px;fill:#ff2a2a;fill-opacity:1;stroke:none;font-family:Pacifico;-inkscape-font-specification:Pacifico"
           d="m 300.66723,854.62777 c -1e-5,-2.04687 0.12405,-4.40388 0.37216,-7.07105 0.2481,-2.69814 0.55823,-5.64441 0.9304,-8.83881 0.37215,-3.22536 0.79083,-6.12511 1.25604,-8.69925 0.46519,-2.57407 0.91489,-4.77602 1.34908,-6.60585 0.34114,-1.42657 0.99242,-2.62058 1.95385,-3.58204 0.99241,-0.96137 2.32599,-1.44208 4.00072,-1.44212 1.67471,4e-5 2.83771,0.51176 3.48901,1.53516 0.65126,1.02348 0.9769,2.38807 0.97692,4.09376 -2e-5,0.46524 -0.0465,1.10102 -0.13956,1.90733 -0.0931,0.77537 -0.21712,1.64374 -0.37216,2.60512 -0.12408,0.93044 -0.26364,1.90736 -0.41868,2.93076 -0.15509,0.99246 -0.31016,2.13996 -0.4652,3.44249 -0.12408,1.27157 -0.23262,2.23299 -0.32565,2.88424 -0.0931,0.62029 -0.13957,1.03897 -0.13956,1.25604 l 0.93041,0 c 0.18606,-0.34112 0.48068,-0.88385 0.88388,-1.6282 0.40315,-0.77531 0.86835,-1.87628 1.3956,-3.30292 0.5272,-1.42659 1.08544,-2.68263 1.67472,-3.76813 0.62024,-1.11644 1.19399,-2.1709 1.72124,-3.16336 0.5272,-1.02341 1.00791,-1.92279 1.44212,-2.69817 0.43417,-0.77529 0.75981,-1.34904 0.97693,-1.72124 0.9924,-1.67468 2.12438,-2.82217 3.39596,-3.44248 1.27152,-0.62022 2.68262,-0.93036 4.23333,-0.9304 1.55063,4e-5 2.77565,0.65132 3.67508,1.95384 0.93036,1.3026 1.39556,3.10138 1.3956,5.39633 -4e-5,0.34118 -0.0776,0.91493 -0.2326,1.72124 -0.12409,0.80638 -0.29467,1.7678 -0.51172,2.88424 -0.21713,1.11652 -0.46524,2.55864 -0.74432,4.32637 -0.24815,1.76779 -0.48075,3.34947 -0.6978,4.74504 -0.21713,1.39563 -0.40321,2.77572 -0.55824,4.14029 -0.12409,1.36461 -0.18612,2.62065 -0.18608,3.76812 -4e-5,1.92285 -0.0831,3.18886 0.6978,4.74505 8.78498,-7.51868 10.83429,-5.76117 11.92138,-6.51362 l 5.31065,4.97405 c -15.50708,10.93448 -15.18738,13.73237 -19.37941,13.76486 -3.46415,-0.0463 -4.77135,-1.52574 -5.76101,-3.61908 -1.14752,-2.48106 -1.72127,-6.09412 -1.72124,-10.83917 -3e-5,-1.86079 0.12402,-3.86115 0.37216,-6.00109 0.24808,-2.17092 0.55821,-4.49692 0.9304,-6.97801 l -0.74432,0 -12.18826,24.19043 c -0.65129,1.30256 -1.34909,2.17094 -2.0934,2.60512 -0.77535,0.4652 -1.67474,0.6978 -2.69816,0.6978 -1.27156,0 -2.295,-0.26361 -3.07033,-0.79084 -0.77534,-0.55824 -1.3801,-1.28705 -1.81428,-2.18644 -0.40318,-0.9304 -0.6823,-1.96934 -0.83736,-3.11684 -0.12406,-1.1785 -0.18609,-2.38802 -0.18608,-3.62857"
           sodipodi:nodetypes="cccsccccccccccccccccsccccccccccccccccccccccscccc" />
        <path
           inkscape:connector-curvature="0"
           id="path3002"
           style="font-size:95.27307892px;font-style:normal;font-variant:normal;font-weight:normal;font-stretch:normal;line-height:125%;letter-spacing:0px;word-spacing:0px;fill:#ff2a2a;fill-opacity:1;stroke:none;font-family:Pacifico;-inkscape-font-specification:Pacifico"
           d="m 356.45062,864.85615 c -2.8936,0.35494 -5.49735,0.14315 -7.81128,-0.63538 -2.28318,-0.7823 -4.25576,-1.96202 -5.91777,-3.53916 -1.66578,-1.60793 -3.00967,-3.52093 -4.03163,-5.73902 -0.99498,-2.25262 -1.64916,-4.65641 -1.96255,-7.21139 -0.21145,-1.72381 -0.13933,-3.81051 0.21637,-6.26009 0.35191,-2.4803 0.75321,-4.68549 1.20387,-6.61555 0.48145,-1.93376 1.14353,-3.79599 1.98624,-5.58667 0.83894,-1.82139 1.87361,-3.4481 3.10403,-4.88015 1.2574,-1.46651 2.70271,-2.67491 4.33593,-3.62518 1.66021,-0.98475 3.55231,-1.60741 5.67633,-1.86799 1.7238,-0.21141 3.35849,-0.13071 4.90404,0.24209 1.54551,0.37289 2.91927,1.00115 4.12129,1.88478 1.22898,0.84916 2.23815,1.94396 3.02752,3.28439 0.78932,1.34053 1.2916,2.88807 1.50686,4.64265 0.23407,1.90856 -0.13455,4.12536 -1.10587,6.6504 -0.94059,2.52133 -2.13817,4.73044 -3.59273,6.62737 -1.45461,1.89696 -3.25507,3.64886 -5.40139,5.25568 -2.11557,1.60308 -4.46708,2.93826 -7.05454,4.00553 0.56367,0.77451 1.09498,1.41236 1.59392,1.91358 0.52969,0.49746 1.0443,0.87178 1.5438,1.12295 0.49949,0.2512 1.00305,0.40816 1.5107,0.47086 0.53838,0.0589 1.10002,0.0525 1.68491,-0.0192 3.8105,0.0907 12.73834,-3.75319 16.63399,-7.17322 0,0 1.84422,10.01835 1.82407,9.93204 -4.83722,4.16925 -12.9611,7.14108 -17.99611,7.12068 m -8.80313,-20.94848 c 1.10815,-0.13591 2.41533,-0.66861 3.49961,-1.2729 1.2521,-0.69782 2.38519,-1.62783 3.37589,-2.6638 1.13765,-1.18963 2.15998,-2.53049 2.88275,-4.00936 0.60081,-1.22933 1.19978,-2.57071 1.15733,-3.93834 -0.0365,-1.17682 -0.43958,-2.42517 -1.20409,-3.32058 -0.49747,-0.58265 -1.24785,-1.04735 -2.01121,-1.11249 -1.16976,-0.0998 -2.33974,0.52142 -3.32625,1.1579 -0.86087,0.55542 -1.55767,1.36982 -2.117,2.22816 -0.56494,0.86695 -0.87911,1.87969 -1.19524,2.86499 -0.40313,1.25644 -0.67071,2.55632 -0.88594,3.85818 -0.20494,1.2396 -0.37262,2.49332 -0.38369,3.74969 -0.007,0.82241 0.12471,1.78136 0.20788,2.45855"
           sodipodi:nodetypes="ccccscccccccccccsccccccccccaaaaaaaaaaac" />
        <path
           inkscape:connector-curvature="0"
           id="path3004"
           style="font-size:95.27307892px;font-style:normal;font-variant:normal;font-weight:normal;font-stretch:normal;line-height:125%;letter-spacing:0px;word-spacing:0px;fill:#ff2a2a;fill-opacity:1;stroke:none;font-family:Pacifico;-inkscape-font-specification:Pacifico"
           d="m 366.35536,855.65121 c 0,-0.68228 0.12405,-1.24052 0.37216,-1.67472 0.24811,-0.46519 0.57375,-0.89938 0.97692,-1.30256 0.40317,-0.40316 0.86837,-0.80634 1.3956,-1.20952 0.52723,-0.43418 1.06996,-0.9614 1.62821,-1.58168 l 14.93294,-20.37579 c -0.55827,-0.24807 -1.03897,-0.48067 -1.44213,-0.6978 -0.40319,-0.21706 -0.77535,-0.40314 -1.11648,-0.55824 -0.31015,-0.18605 -0.63579,-0.32561 -0.97692,-0.41868 -0.34116,-0.093 -0.71332,-0.13953 -1.11648,-0.13956 -0.99244,3e-5 -1.8143,0.0155 -2.46556,0.0465 -0.6513,0.031 -1.20954,0.13959 -1.67473,0.32564 -0.43419,0.18611 -0.83737,0.46523 -1.20952,0.83736 -0.34115,0.3722 -0.72882,0.89942 -1.163,1.58168 -0.96142,1.48868 -1.76777,2.58965 -2.41904,3.30293 -0.65129,0.68232 -1.24054,1.02347 -1.76776,1.02344 -0.49622,3e-5 -0.85288,-0.21707 -1.06997,-0.65128 -0.18608,-0.46517 -0.27912,-1.06993 -0.27912,-1.81429 0,-0.3101 0.0155,-0.63574 0.0465,-0.97692 0.031,-0.37212 0.0775,-0.74428 0.13956,-1.11648 0.4652,-2.69813 1.13199,-4.88457 2.00037,-6.55933 0.86836,-1.67468 1.82978,-2.96173 2.88424,-3.86116 1.08546,-0.93036 2.20194,-1.55062 3.34944,-1.8608 1.1785,-0.3411 2.26397,-0.51168 3.25641,-0.51172 0.7443,4e-5 1.48862,0.18612 2.23296,0.55824 0.7443,0.34119 1.47312,0.72886 2.18644,1.163 0.7443,0.43423 1.48862,0.8374 2.23297,1.20952 0.77531,0.34119 1.56615,0.52727 2.37252,0.55824 0.62024,0.0311 1.17848,0.0466 1.67472,0.0465 0.5272,4e-5 1.00791,4e-5 1.44212,0 1.24051,4e-5 2.23294,-0.0155 2.97729,-0.0465 0.74429,-0.062 1.30253,-0.12401 1.67472,-0.18608 0.40314,-0.062 0.68226,-0.1085 0.83736,-0.13956 0.15503,-0.062 0.27909,-0.093 0.37216,-0.093 1.08543,4e-5 1.86077,0.38771 2.326,1.163 0.49618,0.74436 0.74429,1.7678 0.74433,3.07032 -4e-5,1.0545 -0.0931,1.95388 -0.27913,2.69817 -0.0621,0.24814 -0.37219,0.57378 -0.9304,0.97692 -0.55827,0.3722 -1.48867,0.72885 -2.7912,1.06996 -0.37219,0.68233 -0.99246,1.64374 -1.8608,2.88424 -0.86841,1.24057 -1.87634,2.62066 -3.02381,4.14029 -1.1165,1.51968 -2.37254,3.24092 -3.76812,5.16373 -1.36461,1.92285 -2.60515,3.59757 -3.72161,5.02416 -1.08548,1.39562 -2.0469,2.62065 -2.88424,3.67509 -0.80636,1.02345 -1.3491,1.72125 -1.6282,2.0934 l -0.2326,0.9304 c 0.031,10e-6 0.31012,0.10856 0.83736,0.32564 0.52721,0.2171 1.14748,0.46521 1.8608,0.74432 0.71329,0.24812 1.45761,0.48072 2.23296,0.6978 0.80633,0.2171 1.50413,0.32565 2.09341,0.32564 1.30254,10e-6 2.48104,-0.18607 3.53552,-0.55824 1.08544,-0.40316 2.07787,-0.89938 2.97729,-1.48864 0.93037,-0.58924 1.78323,-1.20951 2.5586,-1.8608 0.80631,-0.68228 1.56614,-1.31806 2.27948,-1.90732 0.74429,-0.58924 1.4731,-1.06995 2.18644,-1.44213 0.71328,-0.40315 1.4576,-0.60474 2.23297,-0.60476 0.58921,2e-5 1.11644,0.13958 1.58168,0.41868 0.49617,0.27914 0.89935,0.63579 1.20952,1.06996 0.34111,0.43421 0.58921,0.93042 0.74432,1.48865 0.18604,0.52724 0.27908,1.05446 0.27912,1.58168 -4e-5,0.8994 -0.34119,1.8453 -1.02344,2.83772 -0.68233,0.96143 -1.59723,1.90733 -2.74468,2.83773 -1.14753,0.9304 -2.48111,1.81428 -4.00073,2.65164 -1.51969,0.83736 -3.11687,1.58168 -4.79156,2.23296 -1.64374,0.62027 -3.33397,1.11648 -5.07069,1.48864 -1.70576,0.37216 -3.31845,0.55824 -4.83809,0.55824 -0.12407,0 -0.44971,-0.062 -0.97692,-0.18608 -0.52724,-0.12405 -1.22504,-0.32564 -2.0934,-0.60476 -0.86839,-0.31013 -1.87632,-0.6978 -3.0238,-1.163 -6.5517,-2.19324 -5.97562,-1.47641 -10.97874,-3.0238 -0.43419,-0.55824 -0.75983,-1.19401 -0.97692,-1.90732 -0.21709,-0.7133 -0.32564,-1.47313 -0.32564,-2.27949"
           sodipodi:nodetypes="ccccccccccsccccccsccsccccccccccccccccccscccccccccccccccccccccccccsccccsc" />
        <path
           inkscape:connector-curvature="0"
           id="path3006"
           style="font-size:95.27307892px;font-style:normal;font-variant:normal;font-weight:normal;font-stretch:normal;line-height:125%;letter-spacing:0px;word-spacing:0px;fill:#ff2a2a;fill-opacity:1;stroke:none;font-family:Pacifico;-inkscape-font-specification:Pacifico"
           d="m 451.85887,852.95305 c -0.71336,0.99244 -1.67477,2.15544 -2.88424,3.489 -1.17856,1.33359 -2.51213,2.60513 -4.00073,3.81465 -1.48868,1.20952 -3.08587,2.23296 -4.79156,3.07032 -1.70578,0.83736 -3.41151,1.25604 -5.11721,1.25604 -2.04692,0 -3.75265,-0.65128 -5.11721,-1.95384 -1.36462,-1.33357 -2.54312,-3.2564 -3.53552,-5.76849 -0.74435,0.86839 -1.65924,1.75227 -2.74468,2.65165 -1.0855,0.89939 -2.27951,1.72124 -3.58205,2.46556 -1.27157,0.71331 -2.60514,1.30256 -4.00072,1.76776 -1.39562,0.4652 -2.79122,0.6978 -4.18681,0.6978 -1.48865,0 -2.94628,-0.29462 -4.37288,-0.88388 -1.39561,-0.62026 -2.63615,-1.48864 -3.72161,-2.60512 -1.08547,-1.14749 -1.95385,-2.52758 -2.60512,-4.14029 -0.65129,-1.6437 -0.97693,-3.48899 -0.97692,-5.53588 -10e-6,-2.32599 0.32563,-4.71402 0.97692,-7.16409 0.65127,-2.45004 1.65921,-5.10168 3.0238,-7.95493 1.36458,-2.8532 2.82221,-5.31876 4.37289,-7.39669 1.58167,-2.07786 3.30291,-3.89214 5.16372,-5.44285 1.86079,-1.55062 3.81463,-2.77565 5.86153,-3.67508 2.07787,-0.93036 4.18678,-1.39556 6.32673,-1.3956 3.2922,-0.19713 7.50567,-0.18483 11.28235,1.87856 1.81136,0.65232 0.85347,4.36781 0.85938,5.93681 -4e-5,1.48867 -0.1551,3.14789 -0.4652,4.97764 -0.31017,1.79881 -0.65132,3.65961 -1.02344,5.58241 -0.3722,1.89184 -0.82189,4.04727 -1.34908,6.46629 -0.52726,2.41906 -0.79088,4.48145 -0.79084,6.18717 -4e-5,1.45764 0.12402,2.60513 0.37216,3.44248 0.27908,0.80636 0.85283,1.20953 1.72124,1.20952 0.65124,10e-6 1.33354,-0.15506 2.04689,-0.4652 0.71326,-0.34114 1.42657,-0.77532 2.13992,-1.30256 0.74427,-0.52722 1.47309,-1.11647 2.18644,-1.76776 0.74428,-0.68228 1.44208,-1.38008 2.0934,-2.09341 6.73551,-8.38895 8.39854,1.23458 6.83845,4.65201 m -39.72813,-3.67508 c -10e-6,0.77534 0.0465,1.53517 0.13956,2.27948 0.12404,0.71332 0.32563,1.3646 0.60476,1.95384 0.27911,0.55825 0.65127,1.02345 1.11648,1.3956 0.46519,0.34116 1.05444,0.51173 1.76777,0.51172 1.14747,1e-5 2.18642,-0.4962 3.11684,-1.48864 0.93038,-0.99242 1.73673,-2.18643 2.41904,-3.58204 0.68227,-1.39559 1.22501,-2.83771 1.62821,-4.32637 0.43416,-1.48862 0.71328,-2.72915 0.83736,-3.7216 l 3.489,-15.21206 c -1.27158,3e-5 -2.51211,0.32567 -3.7216,0.97692 -1.20955,0.6203 -2.35704,1.47317 -3.44249,2.5586 -1.05447,1.0855 -2.03139,2.32604 -2.93076,3.72161 -0.89941,1.39563 -1.78329,3.11687 -2.65164,5.16372 -0.8684,2.04691 -1.48866,3.84568 -1.86081,5.39633 -0.34116,1.55069 -0.51173,3.00831 -0.51172,4.37289"
           sodipodi:nodetypes="ccccsccccsscccsssccccccccccccccccccccccsccccccsscc" />
        <path
           sodipodi:type="arc"
           style="fill:#ff2a2a;fill-opacity:1;stroke:none"
           id="path3020"
           sodipodi:cx="154.14928"
           sodipodi:cy="76.907814"
           sodipodi:rx="7.7781744"
           sodipodi:ry="7.7781744"
           d="m 161.92745,76.907814 c 0,4.295767 -3.48241,7.778174 -7.77817,7.778174 -4.29577,0 -7.77818,-3.482407 -7.77818,-7.778174 0,-4.295767 3.48241,-7.778174 7.77818,-7.778174 4.29576,0 7.77817,3.482407 7.77817,7.778174 z"
           transform="translate(138.59293,729.73476)" />
      </g>
      <text
         sodipodi:linespacing="125%"
         id="text3036"
         y="974.30829"
         x="457.48981"
         style="font-size:31.06866264px;font-style:normal;font-variant:normal;font-weight:normal;font-stretch:normal;line-height:125%;letter-spacing:0px;word-spacing:0px;fill:#999999;fill-opacity:1;stroke:none;font-family:Monaco;-inkscape-font-specification:Monaco"
         xml:space="preserve"><tspan
           style="font-size:31.06866264px;font-style:normal;font-variant:normal;font-weight:normal;font-stretch:normal;text-align:start;line-height:125%;writing-mode:lr-tb;text-anchor:start;fill:#999999;font-family:Bebas Neue;-inkscape-font-specification:Bebas Neue"
           y="974.30829"
           x="457.48981"
           id="tspan3038"
           sodipodi:role="line">rent a car</tspan></text>
    </g>
  </g>
</svg>
